<svg width="512" height="512" viewBox="0 0 512 512" xmlns="http://www.w3.org/2000/svg">
  <defs>
    <linearGradient id="petalGradient" x1="50%" y1="0%" x2="50%" y2="100%">
      <stop offset="0%" style="stop-color:#FFC0CB;stop-opacity:1" /> <stop offset="100%" style="stop-color:#FF69B4;stop-opacity:1" /> </linearGradient>
    <radialGradient id="centerGradient" cx="50%" cy="50%" r="50%" fx="50%" fy="50%">
      <stop offset="0%" style="stop-color:#FFFACD;stop-opacity:1" /> <stop offset="100%" style="stop-color:#FFD700;stop-opacity:1" /> </radialGradient>
  </defs>
  
  <g fill="url(#petalGradient)" stroke="#FF1493" stroke-width="8" stroke-linejoin="round">
    <path d="M256,64 C210,64 170,100 170,150 C170,190 200,230 256,256 C312,230 342,190 342,150 C342,100 302,64 256,64 Z" transform="rotate(0 256 256)"/>
    <path d="M256,64 C210,64 170,100 170,150 C170,190 200,230 256,256 C312,230 342,190 342,150 C342,100 302,64 256,64 Z" transform="rotate(72 256 256)"/>
    <path d="M256,64 C210,64 170,100 170,150 C170,190 200,230 256,256 C312,230 342,190 342,150 C342,100 302,64 256,64 Z" transform="rotate(144 256 256)"/>
    <path d="M256,64 C210,64 170,100 170,150 C170,190 200,230 256,256 C312,230 342,190 342,150 C342,100 302,64 256,64 Z" transform="rotate(216 256 256)"/>
    <path d="M256,64 C210,64 170,100 170,150 C170,190 200,230 256,256 C312,230 342,190 342,150 C342,100 302,64 256,64 Z" transform="rotate(288 256 256)"/>
  </g>

  <circle cx="256" cy="256" r="60" fill="url(#centerGradient)" stroke="#DAA520" stroke-width="5"/>
  
  <g fill="#8B4513">
      <circle cx="256" cy="256" r="10"/>
      <circle cx="256" cy="220" r="8"/>
      <circle cx="288" cy="240" r="8"/>
      <circle cx="278" cy="280" r="8"/>
      <circle cx="234" cy="280" r="8"/>
      <circle cx="224" cy="240" r="8"/>
  </g>
</svg>